<svg xmlns="http://www.w3.org/2000/svg" width="256" height="256" viewBox="0 0 256 256">
  <defs>
    <linearGradient id="back" x1="0" y1="0" x2="0" y2="1"><stop offset="0" stop-color="#3A2BC4"/><stop offset="1" stop-color="#23148F"/></linearGradient>
    <linearGradient id="leather" x1="0" y1="0" x2="1" y2="1"><stop offset="0" stop-color="#5E9DFF"/><stop offset="0.55" stop-color="#4B5BF0"/><stop offset="1" stop-color="#4A1AD8"/></linearGradient>
    <linearGradient id="tab" x1="0" y1="0" x2="0" y2="1"><stop offset="0" stop-color="#5068F4"/><stop offset="1" stop-color="#3317B8"/></linearGradient>
    <linearGradient id="green" x1="0" y1="0" x2="0" y2="1"><stop offset="0" stop-color="#9BEE62"/><stop offset="1" stop-color="#34B532"/></linearGradient>
    <linearGradient id="cyan" x1="0" y1="0" x2="0" y2="1"><stop offset="0" stop-color="#8ADCFF"/><stop offset="1" stop-color="#1F94EC"/></linearGradient>
    <linearGradient id="snap" x1="0" y1="0" x2="0" y2="1"><stop offset="0" stop-color="#FFFFFF"/><stop offset="1" stop-color="#9AA3B2"/></linearGradient>
    <linearGradient id="gold" x1="0" y1="0" x2="1" y2="1"><stop offset="0" stop-color="#FFE9A8"/><stop offset="1" stop-color="#D9A93E"/></linearGradient>
    <filter id="ds" x="-20%" y="-20%" width="140%" height="150%">
      <feGaussianBlur in="SourceAlpha" stdDeviation="4"/><feOffset dy="5"/>
      <feComponentTransfer><feFuncA type="linear" slope="0.3"/></feComponentTransfer>
      <feMerge><feMergeNode/><feMergeNode in="SourceGraphic"/></feMerge>
    </filter>
    <filter id="blur" x="-20%" y="-20%" width="140%" height="140%"><feGaussianBlur stdDeviation="3"/></filter>
    <filter id="grain" x="0" y="0" width="100%" height="100%">
      <feTurbulence type="fractalNoise" baseFrequency="0.9" numOctaves="2" seed="3"/>
      <feColorMatrix values="0 0 0 0 0  0 0 0 0 0  0 0 0 0 0  0 0 0 0.09 0"/>
      <feComposite in2="SourceGraphic" operator="in"/>
    </filter>
    <clipPath id="frontClip"><rect x="20" y="104" width="216" height="126" rx="24"/></clipPath>
  </defs>
  <g filter="url(#ds)">
    <!-- back panel -->
    <rect x="20" y="84" width="216" height="146" rx="24" fill="url(#back)"/>
    <!-- cards -->
    <g transform="rotate(-9 110 90)">
      <rect x="46" y="38" width="128" height="84" rx="9" fill="url(#green)"/>
      <path d="M56 39.5H164" stroke="#FFFFFF" stroke-opacity="0.7" stroke-width="1.5"/>
    </g>
    <g transform="rotate(5 150 96)">
      <rect x="92" y="52" width="128" height="84" rx="9" fill="url(#cyan)"/>
      <path d="M102 53.5H210" stroke="#FFFFFF" stroke-opacity="0.7" stroke-width="1.5"/>
      <rect x="108" y="66" width="22" height="16" rx="3" fill="url(#gold)"/>
    </g>
    <!-- front pocket -->
    <rect x="20" y="104" width="216" height="126" rx="24" fill="url(#leather)"/>
    <rect x="20" y="104" width="216" height="126" rx="24" fill="#000" filter="url(#grain)"/>
    <g clip-path="url(#frontClip)">
      <rect x="20" y="96" width="216" height="12" fill="#1A0E6A" opacity="0.35" filter="url(#blur)"/>
    </g>
    <path d="M42 105.5H214" stroke="#FFFFFF" stroke-opacity="0.55" stroke-width="1.5"/>
    <rect x="27" y="111" width="202" height="112" rx="18" fill="none" stroke="#FFFFFF" stroke-opacity="0.45" stroke-width="1.5" stroke-dasharray="5 3.5"/>
    <!-- clasp tab -->
    <g clip-path="url(#frontClip)">
    <path d="M236 132H176Q154 132 154 156Q154 180 176 180H236Z" fill="#12085A" opacity="0.3" filter="url(#blur)" transform="translate(0 3)"/>
    <path d="M236 132H176Q154 132 154 156Q154 180 176 180H236Z" fill="url(#tab)"/>
    <path d="M236 138H177Q160 138 160 156Q160 174 177 174H236" fill="none" stroke="#FFFFFF" stroke-opacity="0.4" stroke-width="1.3" stroke-dasharray="4 3"/>
    <path d="M178 133.3H234" stroke="#FFFFFF" stroke-opacity="0.35"/>
    </g>
    <circle cx="180" cy="156" r="10" fill="#1C0F70" opacity="0.4"/>
    <circle cx="180" cy="155" r="9" fill="url(#snap)"/>
    <circle cx="180" cy="155" r="4.5" fill="none" stroke="#7C8596" stroke-width="1.2"/>
  </g>
</svg>
