<svg xmlns="http://www.w3.org/2000/svg" width="256" height="256" viewBox="0 0 256 256">
  <defs>
    <path id="lbTile" d="M15 15H241V241H15Z"/>
    <clipPath id="lbClip"><use href="#lbTile"/></clipPath>
    <linearGradient id="lbFill" x1="0" y1="15" x2="0" y2="241" gradientUnits="userSpaceOnUse"><stop offset="0" stop-color="#2D3D6E"/><stop offset="1" stop-color="#132253"/></linearGradient>
    <linearGradient id="lbGloss" x1="0" y1="15" x2="0" y2="130" gradientUnits="userSpaceOnUse"><stop offset="0" stop-color="#FFFFFF" stop-opacity="0.22"/><stop offset="1" stop-color="#FFFFFF" stop-opacity="0"/></linearGradient>
  </defs>
  <use href="#lbTile" fill="url(#lbFill)"/>
  <g clip-path="url(#lbClip)">
    <path d="M15 15H241V120C170 138 86 138 15 124Z" fill="url(#lbGloss)"/>
    <rect x="15" y="183" width="226" height="1" fill="#000" fill-opacity="0.10"/>
    <rect x="15" y="184" width="226" height="1" fill="#FFFFFF" fill-opacity="0.18"/>
  </g>
  <g clip-path="url(#lbClip)" fill="none">
    <use href="#lbTile" stroke="#000" stroke-opacity="0.12" stroke-width="5"/>
    <use href="#lbTile" stroke="#000" stroke-opacity="0.14" stroke-width="4" transform="translate(0 -1.5)"/>
    <use href="#lbTile" stroke="#7F88A6" stroke-opacity="0.8" stroke-width="2" transform="translate(0 1)"/>
    <use href="#lbTile" stroke="#0F1B40" stroke-width="2"/>
  </g>
  <g clip-path="url(#lbClip)">
  <svg xmlns="http://www.w3.org/2000/svg" x="25.18" y="21.00" width="205.64" height="156.00" viewBox="12 60 232 176" overflow="visible">
  <defs>
    <linearGradient id="back" x1="0" y1="84" x2="0" y2="228" gradientUnits="userSpaceOnUse">
      <stop offset="0" stop-color="#0B45C2"/><stop offset="1" stop-color="#062A80"/>
    </linearGradient>
    <linearGradient id="front" x1="0" y1="128" x2="0" y2="230" gradientUnits="userSpaceOnUse">
      <stop offset="0" stop-color="#2A6CF0"/><stop offset="1" stop-color="#0A3CB2"/>
    </linearGradient>
    <radialGradient id="lg" cx="110" cy="140" r="140" gradientUnits="userSpaceOnUse">
      <stop offset="0" stop-color="#FFFFFF" stop-opacity="0.18"/><stop offset="1" stop-color="#FFFFFF" stop-opacity="0"/>
    </radialGradient>
    <linearGradient id="tkf" x1="0" y1="60" x2="0" y2="140" gradientUnits="userSpaceOnUse">
      <stop offset="0" stop-color="#FFFFFF"/><stop offset="1" stop-color="#E4E8F0"/>
    </linearGradient>
    <linearGradient id="lip" x1="0" y1="108" x2="0" y2="134" gradientUnits="userSpaceOnUse">
      <stop offset="0" stop-color="#000" stop-opacity="0"/><stop offset="1" stop-color="#000" stop-opacity="0.38"/>
    </linearGradient>
    <filter id="sh" x="-20%" y="-20%" width="140%" height="140%"><feGaussianBlur stdDeviation="4"/></filter>
    <path id="tk" d="M100.59,148.51C87.52,156.05 83.04,172.77 90.58,185.84L196.47,369.24L196.48,369.23C204.65,364.52 215.09,367.32 219.81,375.48C224.53,383.65 221.73,394.1 213.56,398.82L213.55,398.82L234.05,434.33C241.6,447.4 258.31,451.88 271.38,444.33L411.41,363.48C424.48,355.94 428.96,339.23 421.42,326.16L400.91,290.65L400.91,290.65C392.74,295.37 382.3,292.57 377.58,284.4C372.86,276.23 375.66,265.79 383.83,261.07L383.83,261.07L277.95,77.66C270.4,64.59 253.690,60.12 240.62,67.66L100.59,148.51Z"/>
    <path id="t" d="M217.18,203.79H243.47L249.82,174.78L288.8,162.08L279.73,203.79H312.37L306.93,230.07H274.29L260.7,290.81C259.79,294.44 258.88,298.97 258.88,304.41C258.88,312.57 264.32,318.01 272.48,318.01C278.83,318.01 285.17,316.2 290.61,314.38L284.27,342.49C277.92,343.39 270.67,346.11 264.32,346.11C239.84,346.11 221.71,336.14 221.71,308.95C221.71,298.07 223.53,287.19 226.25,276.31L236.22,229.17H209.93L217.18,203.79Z"/>
  </defs>
  <ellipse cx="128" cy="232" rx="104" ry="6" fill="#000" fill-opacity="0.3" filter="url(#sh)"/>
  <!-- wallet back panel -->
  <rect x="18" y="84" width="220" height="146" rx="18" fill="url(#back)"/>
  <!-- white ticket standing upright inside the pocket (original ticket outline, tilted about 4 degrees, notch end up) -->
  <clipPath id="inside"><rect x="0" y="0" width="256" height="222"/></clipPath>
  <g clip-path="url(#inside)"><g transform="translate(128 164) rotate(214) scale(0.55) translate(-256 -256)">
    <use href="#tk" fill="#FFFFFF"/>
    <use href="#tk" fill="#DDE3EE" fill-opacity="0.5"/>
    <use href="#tk" fill="none" stroke="#8E9AB2" stroke-width="3.5"/>
    <path d="M222 377L380 286" stroke="#AEB8CC" stroke-width="5" stroke-dasharray="10 9" stroke-linecap="round"/>
  </g></g>
  <!-- soft inner shadow at the pocket lip -->
  <rect x="18" y="108" width="220" height="26" fill="url(#lip)"/>
  <!-- front pocket -->
  <path d="M18 136Q128 124 238 136V212Q238 230 220 230H36Q18 230 18 212Z" fill="url(#front)"/>
  <path d="M18 136Q128 124 238 136V212Q238 230 220 230H36Q18 230 18 212Z" fill="url(#lg)"/>
  <path d="M19 137Q128 125 237 137" fill="none" stroke="#7FA9FF" stroke-width="2"/>
  <path d="M28 145Q128 134 228 145V210Q228 220 218 220H38Q28 220 28 210Z" fill="none" stroke="#BFD4FF" stroke-opacity="0.85" stroke-width="1.8" stroke-dasharray="5 4"/>
  <path d="M18.8 136.5V212Q18.8 229.2 36 229.2H220Q237.2 229.2 237.2 212V136.5" fill="none" stroke="#041E60" stroke-width="1.6"/>
  <!-- embossed original t logo on the wallet -->
  <g transform="translate(49.7 107) scale(0.3)">
    <use href="#t" fill="#031A55" fill-opacity="0.45" transform="translate(0 7)"/>
    <use href="#t" fill="#FFFFFF"/>
  </g>
</svg>

  </g>
  <text x="128" y="212.0" dominant-baseline="central" text-anchor="middle" font-family="Segoe UI, Microsoft YaHei, sans-serif" font-weight="700" font-size="28.0" fill="#000000" fill-opacity="0.25" transform="translate(0 -1)">Fan Wallet</text>
  <text x="128" y="212.0" dominant-baseline="central" text-anchor="middle" font-family="Segoe UI, Microsoft YaHei, sans-serif" font-weight="700" font-size="28.0" fill="#FFFFFF">Fan Wallet</text>
</svg>
