<svg xmlns="http://www.w3.org/2000/svg" width="256" height="256" viewBox="0 0 256 256">
  <defs>
    <path id="ticket" d="M47 3.06H208.93C227.73 3.06 232.93 8.26 232.93 27.06V228.94C232.93 247.74 227.73 252.94 208.93 252.94H47C28.2 252.94 23 247.74 23 228.94V27.06C23 8.26 28.2 3.06 47 3.06Z"/>
    <mask id="notch">
      <rect width="256" height="256" fill="#FFFFFF"/>
      <circle cx="23" cy="176" r="12" fill="#000"/>
      <circle cx="232.93" cy="176" r="12" fill="#000"/>
    </mask>
    <clipPath id="tc"><use href="#ticket"/></clipPath>
    <linearGradient id="fill" x1="0" y1="3" x2="0" y2="253" gradientUnits="userSpaceOnUse">
      <stop offset="0" stop-color="#1FA04B"/><stop offset="1" stop-color="#0A5E25"/>
    </linearGradient>
    <linearGradient id="stub" x1="0" y1="176" x2="0" y2="253" gradientUnits="userSpaceOnUse">
      <stop offset="0" stop-color="#F7F8F4"/><stop offset="1" stop-color="#E3E6DE"/>
    </linearGradient>
    <linearGradient id="orange" x1="0" y1="0" x2="0" y2="1">
      <stop offset="0" stop-color="#FF9A3C"/><stop offset="1" stop-color="#E8620C"/>
    </linearGradient>
    <pattern id="dots" width="10" height="10" patternUnits="userSpaceOnUse">
      <circle cx="5" cy="5" r="1" fill="#FFFFFF" fill-opacity="0.07"/>
    </pattern>
    <filter id="sh" x="-20%" y="-20%" width="140%" height="140%">
      <feDropShadow dx="0" dy="2" stdDeviation="1.5" flood-color="#032B10" flood-opacity="0.5"/>
    </filter>
  </defs>
  <g mask="url(#notch)">
    <use href="#ticket" fill="url(#fill)"/>
    <g clip-path="url(#tc)">
      <rect width="256" height="176" fill="url(#dots)"/>
      <rect x="0" y="176" width="256" height="80" fill="url(#stub)"/>
      <rect x="0" y="0" width="256" height="60" fill="#FFFFFF" fill-opacity="0.06"/>
    </g>
    <g clip-path="url(#tc)" fill="none">
      <use href="#ticket" stroke="#000" stroke-opacity="0.12" stroke-width="5"/>
      <use href="#ticket" stroke="#FFFFFF" stroke-opacity="0.35" stroke-width="2" transform="translate(0 1)"/>
      <use href="#ticket" stroke="#07481C" stroke-opacity="0.8" stroke-width="2"/>
    </g>
  </g>
  <path d="M40 176H216" stroke="#FFFFFF" stroke-opacity="0.7" stroke-width="2" stroke-dasharray="6 5"/>
  <g filter="url(#sh)">
    <path d="M114,40 H152 L147,49 H119 Z" fill="url(#orange)"/>
    <text x="128" y="112" text-anchor="middle" font-family="Segoe UI Black, Segoe UI, sans-serif" font-weight="900" font-size="64" fill="#FFFFFF" letter-spacing="-1.5">TOTO</text>
    <text x="128" y="152" text-anchor="middle" font-family="Segoe UI, sans-serif" font-weight="700" font-size="32" fill="#FFFFFF">SPORT</text>
  </g>
  <g font-family="Segoe UI, sans-serif" font-weight="700" font-size="26" text-anchor="middle">
    <rect x="52" y="194" width="40" height="40" rx="7" fill="#FFFFFF" stroke="#0B6127" stroke-opacity="0.35"/>
    <rect x="108" y="194" width="40" height="40" rx="7" fill="#1B9444"/>
    <rect x="164" y="194" width="40" height="40" rx="7" fill="#FFFFFF" stroke="#0B6127" stroke-opacity="0.35"/>
    <text x="72" y="223" fill="#0B6127">1</text>
    <text x="128" y="223" fill="#FFFFFF">X</text>
    <text x="184" y="223" fill="#0B6127">2</text>
  </g>
</svg>
