<svg xmlns="http://www.w3.org/2000/svg" width="256" height="256" viewBox="0 0 256 256">
  <defs>
    <path id="tile" d="M27.06 23H228.94C247.74 23 252.94 28.2 252.94 47V208.93C252.94 227.73 247.74 232.93 228.94 232.93H27.06C8.26 232.93 3.06 227.73 3.06 208.93V47C3.06 28.2 8.26 23 27.06 23Z"/>
    <clipPath id="tileClip"><use href="#tile"/></clipPath>
    <linearGradient id="fill" x1="0" y1="23" x2="0" y2="233" gradientUnits="userSpaceOnUse">
      <stop offset="0" stop-color="#1B9444"/><stop offset="1" stop-color="#0B6127"/>
    </linearGradient>
    <radialGradient id="glare" cx="128" cy="0" r="200" gradientUnits="userSpaceOnUse">
      <stop offset="0" stop-color="#FFFFFF" stop-opacity="0.18"/><stop offset="1" stop-color="#FFFFFF" stop-opacity="0"/>
    </radialGradient>
    <linearGradient id="orange" x1="0" y1="0" x2="0" y2="1">
      <stop offset="0" stop-color="#FF9A3C"/><stop offset="1" stop-color="#E8620C"/>
    </linearGradient>
    <linearGradient id="curl" x1="200" y1="200" x2="236" y2="236" gradientUnits="userSpaceOnUse">
      <stop offset="0" stop-color="#FFFFFF"/><stop offset="0.5" stop-color="#E9ECEA"/><stop offset="1" stop-color="#B9C2BC"/>
    </linearGradient>
    <filter id="sh" x="-20%" y="-20%" width="140%" height="140%">
      <feDropShadow dx="0" dy="2.5" stdDeviation="1.5" flood-color="#032B10" flood-opacity="0.5"/>
    </filter>
  </defs>
  <use href="#tile" fill="url(#fill)"/>
  <rect x="0" y="0" width="256" height="256" fill="url(#glare)" clip-path="url(#tileClip)"/>
  <g filter="url(#sh)">
    <path d="M129,70 H175 L169,80 H135 Z" fill="url(#orange)"/>
    <text x="128" y="144" text-anchor="middle" font-family="Segoe UI Black, Segoe UI, sans-serif" font-weight="900" font-size="68" fill="#FFFFFF" letter-spacing="-1.5">TOTO</text>
    <text x="40" y="190" font-family="Segoe UI, sans-serif" font-weight="700" font-size="37" fill="#FFFFFF">SPORT</text>
  </g>
  <g clip-path="url(#tileClip)" fill="none">
    <use href="#tile" stroke="#000" stroke-opacity="0.12" stroke-width="5"/>
    <use href="#tile" stroke="#FFFFFF" stroke-opacity="0.35" stroke-width="2" transform="translate(0 1)"/>
    <use href="#tile" stroke="#07481C" stroke-width="2"/>
  </g>
</svg>
