<svg xmlns="http://www.w3.org/2000/svg" width="256" height="256" viewBox="0 0 256 256">
<defs>
<linearGradient id="ring" x1="0" y1="10" x2="0" y2="246" gradientUnits="userSpaceOnUse"><stop offset="0" stop-color="#FFFFFF"/><stop offset="0.55" stop-color="#E4E4E4"/><stop offset="1" stop-color="#CACACA"/></linearGradient>
<linearGradient id="disk" x1="0" y1="27" x2="0" y2="229" gradientUnits="userSpaceOnUse"><stop offset="0" stop-color="#2B3A63"/><stop offset="1" stop-color="#0B1024"/></linearGradient>
<linearGradient id="gloss" x1="0" y1="27" x2="0" y2="135" gradientUnits="userSpaceOnUse"><stop offset="0" stop-color="#FFFFFF" stop-opacity="0.42"/><stop offset="1" stop-color="#FFFFFF" stop-opacity="0"/></linearGradient>
<clipPath id="diskClip"><circle cx="128" cy="128" r="101"/></clipPath>
<filter id="sh" x="-30%" y="-30%" width="160%" height="170%"><feDropShadow dx="0" dy="3" stdDeviation="3.2" flood-color="#000" flood-opacity="0.24"/></filter>
<filter id="shs" x="-30%" y="-30%" width="160%" height="170%"><feDropShadow dx="0" dy="1.5" stdDeviation="1.6" flood-color="#000" flood-opacity="0.28"/></filter>
</defs>
<circle cx="128" cy="128" r="118" fill="url(#ring)" stroke="#B5B5B5" stroke-width="1.5"/>
<circle cx="128" cy="128" r="116" fill="none" stroke="#FFFFFF" stroke-opacity="0.8" stroke-width="1.5"/>
<circle cx="128" cy="129.5" r="103.5" fill="#000" fill-opacity="0.16"/>
<circle cx="128" cy="128" r="101" fill="url(#disk)"/>
<g clip-path="url(#diskClip)">
<circle cx="128" cy="128" r="101" fill="none" stroke="#000" stroke-opacity="0.12" stroke-width="5"/>
<ellipse cx="128" cy="62" rx="118" ry="78" fill="url(#gloss)"/>
</g>
<circle cx="128" cy="128" r="101" fill="none" stroke="#070B1A" stroke-width="1.5"/><defs>
<radialGradient id="c0" gradientUnits="userSpaceOnUse" cx="82" cy="-41.5" r="127.46"><stop offset="0.66" stop-color="#109DF2"/><stop offset="0.88" stop-color="#AAD445"/><stop offset="0.99" stop-color="#FFD400"/></radialGradient>
<linearGradient id="c1" gradientUnits="userSpaceOnUse" x1="41.64" y1="24" x2="41.39" y2="69"><stop offset="0" stop-color="#3DCBFF"/><stop offset="0.25" stop-color="#0588F7" stop-opacity="0"/></linearGradient>
<radialGradient id="c2" gradientUnits="userSpaceOnUse" cx="78.52" cy="34.59" r="59.92"><stop offset="0.07" stop-color="#8C48FF"/><stop offset="0.5" stop-color="#F2598A"/><stop offset="0.9" stop-color="#FFB152"/></radialGradient>
<linearGradient id="c3" gradientUnits="userSpaceOnUse" x1="80.53" y1="36.25" x2="80.51" y2="48.51"><stop offset="0.06" stop-color="#F8ADFA"/><stop offset="0.71" stop-color="#A86EDD" stop-opacity="0"/></linearGradient>
<linearGradient id="cg1" gradientUnits="userSpaceOnUse" x1="0" y1="24" x2="0" y2="50"><stop offset="0" stop-color="#FFFFFF" stop-opacity="0.55"/><stop offset="1" stop-color="#FFFFFF" stop-opacity="0"/></linearGradient>
<linearGradient id="cg2" gradientUnits="userSpaceOnUse" x1="0" y1="39" x2="0" y2="64"><stop offset="0" stop-color="#FFFFFF" stop-opacity="0.5"/><stop offset="1" stop-color="#FFFFFF" stop-opacity="0"/></linearGradient>
<path id="cpA" d="M65.39,36.42L64.75,39H58.56C53.97,39 49.97,42.12 48.86,46.57L43.25,69H32.06C25.55,69 20.78,62.89 22.36,56.57L27.98,34.1C29.46,28.16 34.79,24 40.91,24H55.69C62.2,24 66.97,30.11 65.39,36.42Z"/>
<path id="cpB" d="M42.61,71.57L43.25,69H49.44C54.03,69 58.03,65.88 59.14,61.42L64.75,39H75.94C82.45,39 87.22,45.11 85.64,51.42L80.02,73.9C78.54,79.84 73.21,84 67.09,84H52.31C45.8,84 41.03,77.89 42.61,71.57Z"/>
<clipPath id="clA"><use href="#cpA"/></clipPath><clipPath id="clB"><use href="#cpB"/></clipPath>
</defs><g transform="translate(128 128) scale(1.9) translate(-54 -54)">
<g filter="url(#sh)"><use href="#cpA" fill="url(#c0)"/><use href="#cpB" fill="url(#c2)"/></g>
<use href="#cpA" fill="url(#c1)"/><use href="#cpB" fill="url(#c3)"/>
<g clip-path="url(#clA)"><use href="#cpA" fill="url(#cg1)"/><use href="#cpA" fill="none" stroke="#FFFFFF" stroke-opacity="0.55" stroke-width="0.8" transform="translate(0 0.5)"/><use href="#cpA" fill="none" stroke="#003A7A" stroke-opacity="0.25" stroke-width="1.6" transform="translate(0 -0.6)"/></g>
<g clip-path="url(#clB)"><use href="#cpB" fill="url(#cg2)"/><use href="#cpB" fill="none" stroke="#FFFFFF" stroke-opacity="0.55" stroke-width="0.8" transform="translate(0 0.5)"/><use href="#cpB" fill="none" stroke="#7A1F3A" stroke-opacity="0.25" stroke-width="1.6" transform="translate(0 -0.6)"/></g>
</g>
</svg>
