<svg xmlns="http://www.w3.org/2000/svg" width="256" height="256" viewBox="0 0 256 256">
  <defs>
    <linearGradient id="sc" x1="0" y1="0" x2="0" y2="1">
      <stop offset="0" stop-color="#6AF2D2"/>
      <stop offset="1" stop-color="#1E9C7C"/>
    </linearGradient>
    <pattern id="scales" width="26" height="20" patternUnits="userSpaceOnUse" patternTransform="translate(6 4) rotate(-18)">
      <rect width="26" height="20" fill="#146E57"/>
      <path d="M0 0 Q13 28 26 0 Z" fill="url(#sc)" stroke="#0D5443" stroke-width="1.2"/>
      <path d="M-13 10 Q0 38 13 10 Z" fill="url(#sc)" stroke="#0D5443" stroke-width="1.2"/>
      <path d="M13 10 Q26 38 39 10 Z" fill="url(#sc)" stroke="#0D5443" stroke-width="1.2"/>
    </pattern>
    <radialGradient id="shade" cx="0.38" cy="0.32" r="0.75">
      <stop offset="0" stop-color="#fff" stop-opacity="0.35"/>
      <stop offset="0.45" stop-color="#fff" stop-opacity="0"/>
      <stop offset="1" stop-color="#001A12" stop-opacity="0.65"/>
    </radialGradient>
    <radialGradient id="ground" cx="0.5" cy="0.5" r="0.5">
      <stop offset="0" stop-color="#000" stop-opacity="0.35"/>
      <stop offset="1" stop-color="#000" stop-opacity="0"/>
    </radialGradient>
    <linearGradient id="streak" x1="1" y1="0" x2="0" y2="0">
      <stop offset="0" stop-color="#3ED8B4" stop-opacity="0.9"/>
      <stop offset="1" stop-color="#3ED8B4" stop-opacity="0"/>
    </linearGradient>
    <radialGradient id="head" cx="0.4" cy="0.35" r="0.7">
      <stop offset="0" stop-color="#9AFFE6"/>
      <stop offset="1" stop-color="#35C4A2"/>
    </radialGradient>
  </defs>
  <!-- speed streaks -->
  <g stroke="url(#streak)" stroke-linecap="round">
    <line x1="10" y1="96" x2="70" y2="96" stroke-width="8"/>
    <line x1="4" y1="132" x2="58" y2="132" stroke-width="10"/>
    <line x1="18" y1="168" x2="70" y2="168" stroke-width="7"/>
  </g>
  <ellipse cx="150" cy="232" rx="78" ry="11" fill="url(#ground)"/>
  <circle cx="150" cy="132" r="92" fill="url(#scales)"/>
  <circle cx="150" cy="132" r="92" fill="url(#shade)"/>
  <circle cx="150" cy="132" r="91.5" fill="none" stroke="#0A3F32" stroke-opacity="0.5"/>
  <!-- tucked head + tail wrap -->
  <path d="M100 196 C132 222 186 218 216 186 C214 200 206 210 196 216 C166 234 120 228 100 196 Z" fill="#1A8A6C" stroke="#0D5443" stroke-width="1.5"/>
  <path d="M146 156 C130 146 106 152 94 174 C90 182 86 192 82 200 C94 196 104 194 116 194 C136 192 152 176 146 156 Z" fill="url(#head)" stroke="#1E8E70" stroke-width="1.2"/>
  <circle cx="126" cy="170" r="4" fill="#0C1A16"/>
  <circle cx="125" cy="168.8" r="1.3" fill="#fff" opacity="0.85"/>
  <ellipse cx="112" cy="78" rx="30" ry="16" transform="rotate(-35 112 78)" fill="#fff" opacity="0.22"/>
</svg>
